<svg width="32" height="32" viewBox="0 0 32 32" fill="none" xmlns="http://www.w3.org/2000/svg">
<circle cx="16" cy="16" r="16" fill="#113870"/>
<path d="M21.9997 15.7313V15.3333H22.6663V13.3333H21.9997V11.9999C21.9997 10.5293 20.8037 9.33325 19.333 9.33325H12.6663C11.1957 9.33325 9.99967 10.5293 9.99967 11.9999V13.3333H9.33301V15.3333H9.99967V15.7313C9.56834 16.2179 9.33127 16.8463 9.33367 17.4966L9.33634 20.0019C9.33701 20.4906 9.60567 20.9146 9.99967 21.1459V21.9999C9.99967 22.1767 10.0699 22.3463 10.1949 22.4713C10.32 22.5963 10.4895 22.6666 10.6663 22.6666H11.333C11.5098 22.6666 11.6794 22.5963 11.8044 22.4713C11.9294 22.3463 11.9997 22.1767 11.9997 21.9999V21.3333H19.9997V21.9999C19.9997 22.1767 20.0699 22.3463 20.1949 22.4713C20.32 22.5963 20.4895 22.6666 20.6663 22.6666H21.333C21.5098 22.6666 21.6794 22.5963 21.8044 22.4713C21.9294 22.3463 21.9997 22.1767 21.9997 21.9999V21.1506C22.1019 21.0935 22.1963 21.0234 22.2803 20.9419C22.5317 20.6899 22.6703 20.3546 22.6697 19.9986L22.667 17.4926C22.6684 16.8435 22.4308 16.2165 21.9997 15.7313ZM13.333 10.6666H18.6663V11.9999H13.333V10.6666ZM12.333 19.3333C12.0677 19.3332 11.8133 19.2277 11.6258 19.04C11.4382 18.8524 11.3329 18.5979 11.333 18.3326C11.3331 18.0673 11.4386 17.8129 11.6262 17.6253C11.8139 17.4378 12.0684 17.3325 12.3337 17.3326C12.599 17.3327 12.8534 17.4382 13.0409 17.6258C13.2285 17.8135 13.3338 18.0679 13.3337 18.3333C13.3336 18.5986 13.2281 18.853 13.0404 19.0405C12.8528 19.228 12.5983 19.3333 12.333 19.3333ZM15.333 15.9999H11.333V13.3333H15.333V15.9999ZM19.6663 19.3333C19.401 19.3332 19.1466 19.2277 18.9591 19.04C18.7716 18.8524 18.6663 18.5979 18.6663 18.3326C18.6664 18.0673 18.7719 17.8129 18.9596 17.6253C19.1472 17.4378 19.4017 17.3325 19.667 17.3326C19.9323 17.3327 20.1867 17.4382 20.3743 17.6258C20.5618 17.8135 20.6671 18.0679 20.667 18.3333C20.6669 18.5986 20.5614 18.853 20.3738 19.0405C20.1861 19.228 19.9316 19.3333 19.6663 19.3333ZM20.6663 15.9999H16.6663V13.3333H20.6663V15.9999Z" fill="white"/>
</svg>
