<svg width="28" height="28" viewBox="0 0 28 28" fill="none" xmlns="http://www.w3.org/2000/svg">
<path fill-rule="evenodd" clip-rule="evenodd" d="M8.7499 5.54167C8.7499 5.28675 11.3842 3.5 13.9999 3.5C16.6156 3.5 19.2499 5.28675 19.2499 5.54167C19.2499 6.45167 19.1531 6.99067 19.0714 7.28408C19.0171 7.47658 18.8369 7.58333 18.6368 7.58333H9.36298C9.1629 7.58333 8.98265 7.47658 8.9284 7.28408C8.84673 6.99067 8.7499 6.45167 8.7499 5.54167ZM13.1249 5.25C12.9702 5.25 12.8218 5.31146 12.7124 5.42085C12.603 5.53025 12.5416 5.67862 12.5416 5.83333C12.5416 5.98804 12.603 6.13642 12.7124 6.24581C12.8218 6.35521 12.9702 6.41667 13.1249 6.41667H14.8749C15.0296 6.41667 15.178 6.35521 15.2874 6.24581C15.3968 6.13642 15.4582 5.98804 15.4582 5.83333C15.4582 5.67862 15.3968 5.53025 15.2874 5.42085C15.178 5.31146 15.0296 5.25 14.8749 5.25H13.1249ZM9.3554 11.2105C7.4129 10.6097 7.9029 9.53633 8.64373 8.75H19.5182C20.1109 9.50717 20.4288 10.5286 18.6374 11.1399C18.7106 11.7898 18.6464 12.4477 18.449 13.0712C18.2516 13.6946 17.9254 14.2696 17.4914 14.7589C17.0575 15.2482 16.5256 15.6407 15.9302 15.9112C15.3348 16.1817 14.6892 16.324 14.0353 16.329C13.3813 16.3339 12.7337 16.2013 12.1342 15.9399C11.5348 15.6784 10.9971 15.2939 10.5558 14.8112C10.1146 14.3285 9.77968 13.7585 9.57288 13.1381C9.36608 12.5177 9.29199 11.8608 9.3554 11.2099M13.8412 11.6661C15.3824 11.6661 16.5771 11.5844 17.4929 11.4421C17.523 11.9177 17.4557 12.3944 17.295 12.8431C17.1344 13.2917 16.8838 13.7029 16.5586 14.0513C16.2335 14.3996 15.8406 14.678 15.4041 14.8692C14.9676 15.0604 14.4966 15.1604 14.02 15.1631C13.5435 15.1659 13.0714 15.0713 12.6327 14.8851C12.194 14.699 11.798 14.4252 11.4688 14.0806C11.1397 13.7359 10.8844 13.3277 10.7186 12.881C10.5528 12.4342 10.4799 11.9582 10.5046 11.4823C11.358 11.6002 12.4517 11.6661 13.8412 11.6661ZM18.9098 20.1833C18.3822 19.3601 17.6559 18.6829 16.7979 18.214C15.9399 17.7451 14.9777 17.4995 13.9999 17.5C13.0217 17.4994 12.0591 17.7449 11.2007 18.2141C10.3424 18.6832 9.6159 19.3608 9.08823 20.1845C8.8924 19.8829 8.59163 19.6646 8.24415 19.572L7.11715 19.2704C6.7436 19.1703 6.34558 19.2226 6.01061 19.4159C5.67565 19.6092 5.43118 19.9276 5.33098 20.3012L4.87832 21.9917C4.82874 22.1767 4.81609 22.3696 4.84109 22.5595C4.86609 22.7494 4.92825 22.9325 5.02402 23.0984C5.11979 23.2642 5.24729 23.4096 5.39925 23.5262C5.55121 23.6428 5.72464 23.7283 5.90965 23.7778L7.03607 24.08C7.22553 24.131 7.42337 24.1432 7.61766 24.1157C7.81195 24.0882 7.99867 24.0217 8.16657 23.9202C8.16703 24.0749 8.22893 24.2231 8.33866 24.3321C8.44838 24.4412 8.59694 24.5022 8.75165 24.5017C8.90636 24.5013 9.05455 24.4394 9.16362 24.3297C9.27268 24.2199 9.3337 24.0714 9.33323 23.9167V23.3333C9.33323 23.1111 9.34898 22.8923 9.37873 22.6782L12.4144 23.492C12.5553 23.7936 12.7793 24.0488 13.0602 24.2275C13.341 24.4063 13.667 24.5013 13.9999 24.5013C14.3328 24.5013 14.6588 24.4063 14.9396 24.2275C15.2205 24.0488 15.4445 23.7936 15.5854 23.492L18.6211 22.6782C18.6508 22.8923 18.6666 23.1111 18.6666 23.3333V23.9167C18.6658 24.0714 18.7265 24.2201 18.8354 24.33C18.9442 24.4399 19.0923 24.5021 19.247 24.5029C19.4017 24.5037 19.5504 24.443 19.6603 24.3341C19.7703 24.2253 19.8325 24.0772 19.8332 23.9225C20.1599 24.1185 20.5636 24.1867 20.9608 24.08L22.0878 23.7784C22.2728 23.7289 22.4463 23.6434 22.5982 23.5268C22.7502 23.4102 22.8777 23.2648 22.9734 23.0989C23.0692 22.9331 23.1314 22.75 23.1564 22.5601C23.1814 22.3702 23.1687 22.1772 23.1191 21.9923L22.6659 20.3018C22.5657 19.9282 22.3212 19.6098 21.9863 19.4165C21.6513 19.2232 21.2533 19.1709 20.8797 19.271L19.7527 19.5726C19.406 19.6649 19.1058 19.8828 18.9098 20.1833ZM9.68498 21.5518C10.0002 20.7899 10.5114 20.1249 11.1669 19.6245C11.8223 19.1241 12.5985 18.8061 13.4166 18.7028V21.0998C13.1551 21.1925 12.9194 21.3459 12.7288 21.5474C12.5382 21.7489 12.398 21.9927 12.3199 22.2588L9.68498 21.5518ZM18.3148 21.5518C17.9996 20.7899 17.4883 20.1249 16.8329 19.6246C16.1775 19.1242 15.4013 18.8062 14.5832 18.7028V21.0998C15.1106 21.2864 15.5224 21.7181 15.6799 22.2588L18.3148 21.5518ZM13.9999 23.3333C14.1546 23.3333 14.303 23.2719 14.4124 23.1625C14.5218 23.0531 14.5832 22.9047 14.5832 22.75C14.5832 22.5953 14.5218 22.4469 14.4124 22.3375C14.303 22.2281 14.1546 22.1667 13.9999 22.1667C13.8452 22.1667 13.6968 22.2281 13.5874 22.3375C13.478 22.4469 13.4166 22.5953 13.4166 22.75C13.4166 22.9047 13.478 23.0531 13.5874 23.1625C13.6968 23.2719 13.8452 23.3333 13.9999 23.3333Z" fill="#113870"/>
</svg>
