<svg width="16" height="16" viewBox="0 0 16 16" fill="none" xmlns="http://www.w3.org/2000/svg">
<path d="M2 14.0002V11.1669L10.8 2.38358C10.9333 2.26136 11.0807 2.16691 11.242 2.10024C11.4033 2.03358 11.5727 2.00024 11.75 2.00024C11.9278 2.00024 12.1 2.03358 12.2667 2.10024C12.4333 2.16691 12.5778 2.26691 12.7 2.40024L13.6167 3.33358C13.75 3.4558 13.8473 3.60024 13.9087 3.76691C13.97 3.93358 14.0004 4.10024 14 4.26691C14 4.44469 13.9696 4.61424 13.9087 4.77558C13.8478 4.93691 13.7504 5.08402 13.6167 5.21691L4.83333 14.0002H2ZM11.7333 5.20024L12.6667 4.26691L11.7333 3.33358L10.8 4.26691L11.7333 5.20024Z" fill="#113870"/>
</svg>
