<svg width="28" height="28" viewBox="0 0 28 28" fill="none" xmlns="http://www.w3.org/2000/svg">
<path d="M14.8747 25.3749C14.7578 25.375 14.6421 25.3516 14.5344 25.3062C14.4267 25.2608 14.3292 25.1943 14.2477 25.1106C14.1661 25.0269 14.1021 24.9277 14.0596 24.8189C14.017 24.71 13.9966 24.5938 13.9997 24.477V14.4445C13.9997 14.3285 13.9536 14.2172 13.8715 14.1352C13.7895 14.0531 13.6782 14.007 13.5622 14.007H3.52208C3.33804 14.0092 3.15784 13.9544 3.00618 13.8501C2.85452 13.7459 2.73882 13.5972 2.67497 13.4246C2.60225 13.2188 2.60911 12.9932 2.6942 12.7921C2.7793 12.5911 2.93648 12.4291 3.13489 12.338L24.1349 2.70477C24.2971 2.63043 24.4782 2.60748 24.6539 2.639C24.8295 2.67051 24.9914 2.75499 25.1176 2.88109C25.2439 3.00719 25.3286 3.16889 25.3604 3.34451C25.3922 3.52012 25.3695 3.70125 25.2954 3.8636L15.6704 24.8636C15.6007 25.0161 15.4886 25.1454 15.3476 25.236C15.2065 25.3267 15.0423 25.3749 14.8747 25.3749Z" fill="white"/>
</svg>
