<svg width="37" height="36" viewBox="0 0 37 36" fill="none" xmlns="http://www.w3.org/2000/svg">
<ellipse cx="18.0549" cy="18" rx="18.0549" ry="18" fill="#113870"/>
<path d="M12.6594 16.79C14.1037 19.62 16.4308 21.93 19.2694 23.38L21.4762 21.18C21.747 20.91 22.1482 20.82 22.4993 20.94C23.6227 21.31 24.8364 21.51 26.0801 21.51C26.6318 21.51 27.0832 21.96 27.0832 22.51V26C27.0832 26.55 26.6318 27 26.0801 27C16.6615 27 9.02832 19.39 9.02832 10C9.02832 9.45 9.47969 9 10.0314 9H13.542C14.0937 9 14.5451 9.45 14.5451 10C14.5451 11.25 14.7457 12.45 15.1168 13.57C15.2272 13.92 15.1469 14.31 14.8661 14.59L12.6594 16.79Z" fill="white"/>
</svg>
