<svg width="19" height="22" viewBox="0 0 19 22" fill="none" xmlns="http://www.w3.org/2000/svg">
<g clip-path="url(#clip0_40_2648)">
<path d="M12.9186 13.2831L9.06001 17.1417L5.20141 13.2831C2.30949 13.4085 0 15.7746 0 18.6948V19.0831C0 20.1549 0.869599 21.0245 1.94143 21.0245H16.1786C17.2504 21.0245 18.12 20.1549 18.12 19.0831V18.6948C18.12 15.7746 15.8105 13.4085 12.9186 13.2831ZM0.550072 3.54358L0.808929 3.60425V5.96632C0.525804 6.1362 0.323572 6.43146 0.323572 6.78738C0.323572 7.12713 0.509625 7.41026 0.772527 7.58418L0.141563 10.104C0.0728036 10.3831 0.2265 10.6702 0.448956 10.6702H2.13962C2.36207 10.6702 2.51577 10.3831 2.44701 10.104L1.81605 7.58418C2.07895 7.41026 2.265 7.12713 2.265 6.78738C2.265 6.43146 2.06277 6.1362 1.77964 5.96632V3.83884L4.44911 4.48194C4.10127 5.17762 3.88286 5.95419 3.88286 6.78738C3.88286 9.64695 6.20044 11.9645 9.06001 11.9645C11.9196 11.9645 14.2372 9.64695 14.2372 6.78738C14.2372 5.95419 14.0228 5.17762 13.6709 4.48194L17.5659 3.54358C18.302 3.36561 18.302 2.44748 17.5659 2.26952L9.86489 0.408979C9.33909 0.283595 8.78497 0.283595 8.25917 0.408979L0.550072 2.26547C-0.182009 2.44344 -0.182009 3.36561 0.550072 3.54358Z" fill="#113870"/>
</g>
<defs>
<clipPath id="clip0_40_2648">
<rect width="18.12" height="20.7086" fill="white" transform="translate(0 0.315918)"/>
</clipPath>
</defs>
</svg>
