<svg width="32" height="32" viewBox="0 0 32 32" fill="none" xmlns="http://www.w3.org/2000/svg">
<path d="M21.3337 13.3333C21.3337 14.7478 20.7718 16.1044 19.7716 17.1046C18.7714 18.1048 17.4148 18.6667 16.0003 18.6667C14.5858 18.6667 13.2293 18.1048 12.2291 17.1046C11.2289 16.1044 10.667 14.7478 10.667 13.3333C10.667 11.9188 11.2289 10.5623 12.2291 9.5621C13.2293 8.5619 14.5858 8 16.0003 8C17.4148 8 18.7714 8.5619 19.7716 9.5621C20.7718 10.5623 21.3337 11.9188 21.3337 13.3333Z" fill="#113870"/>
<path fill-rule="evenodd" clip-rule="evenodd" d="M15.4563 29.3228C8.34499 29.0374 2.66699 23.1814 2.66699 16.0001C2.66699 8.63608 8.63633 2.66675 16.0003 2.66675C23.3643 2.66675 29.3337 8.63608 29.3337 16.0001C29.3337 23.3641 23.3643 29.3334 16.0003 29.3334C15.9394 29.3338 15.8785 29.3338 15.8177 29.3334C15.697 29.3334 15.5763 29.3294 15.4563 29.3228ZM7.44433 24.4134C7.34464 24.1271 7.3107 23.8221 7.34505 23.5209C7.37939 23.2197 7.48113 22.9301 7.64271 22.6736C7.80429 22.4171 8.02157 22.2003 8.27841 22.0393C8.53525 21.8782 8.82506 21.7771 9.12633 21.7434C14.3237 21.1681 17.709 21.2201 22.881 21.7554C23.1827 21.7868 23.4732 21.8867 23.7304 22.0473C23.9877 22.208 24.2049 22.4253 24.3655 22.6826C24.5261 22.9398 24.6259 23.2304 24.6572 23.5321C24.6885 23.8338 24.6506 24.1386 24.5463 24.4234C26.7629 22.1807 28.0043 19.1534 28.0003 16.0001C28.0003 9.37275 22.6277 4.00008 16.0003 4.00008C9.37299 4.00008 4.00033 9.37275 4.00033 16.0001C4.00033 19.2774 5.31433 22.2481 7.44433 24.4134Z" fill="#113870"/>
</svg>
