<svg width="26" height="26" viewBox="0 0 26 26" fill="none" xmlns="http://www.w3.org/2000/svg">
<path d="M18.6285 19.1505C18.343 19.436 17.9559 19.5963 17.5522 19.5963C17.1486 19.5963 16.7614 19.436 16.476 19.1505L13.1135 15.3073L9.75093 19.1493C9.61002 19.2925 9.44214 19.4064 9.25698 19.4844C9.07182 19.5624 8.87305 19.603 8.67213 19.6039C8.4712 19.6047 8.2721 19.5657 8.08632 19.4892C7.90053 19.4127 7.73173 19.3001 7.58965 19.1581C7.44758 19.016 7.33504 18.8472 7.25853 18.6614C7.18201 18.4756 7.14304 18.2765 7.14386 18.0756C7.14468 17.8747 7.18527 17.6759 7.26329 17.4907C7.34131 17.3056 7.45523 17.1377 7.59845 16.9968L11.0967 13.0013L7.59719 9.00332C7.45396 8.86241 7.34005 8.69453 7.26202 8.50937C7.184 8.32422 7.14341 8.12544 7.14259 7.92452C7.14177 7.7236 7.18074 7.5245 7.25726 7.33871C7.33377 7.15292 7.44631 6.98412 7.58839 6.84205C7.73046 6.69997 7.89926 6.58743 8.08505 6.51092C8.27084 6.43441 8.46993 6.39543 8.67086 6.39625C8.87178 6.39707 9.07055 6.43766 9.25571 6.51569C9.44087 6.59371 9.60875 6.70762 9.74966 6.85085L13.1135 10.6954L16.476 6.85085C16.6169 6.70762 16.7848 6.59371 16.9699 6.51569C17.1551 6.43766 17.3539 6.39707 17.5548 6.39625C17.7557 6.39543 17.9548 6.43441 18.1406 6.51092C18.3264 6.58743 18.4952 6.69997 18.6373 6.84205C18.7793 6.98412 18.8919 7.15292 18.9684 7.33871C19.0449 7.5245 19.0839 7.7236 19.0831 7.92452C19.0822 8.12544 19.0417 8.32422 18.9636 8.50937C18.8856 8.69453 18.7717 8.86241 18.6285 9.00332L15.1302 13.0013L18.6285 16.9968C18.77 17.1381 18.8823 17.306 18.9588 17.4908C19.0354 17.6756 19.0749 17.8736 19.0749 18.0737C19.0749 18.2737 19.0354 18.4717 18.9588 18.6565C18.8823 18.8413 18.77 19.0092 18.6285 19.1505Z" fill="#B53D3E"/>
</svg>
