<svg width="32" height="32" viewBox="0 0 32 32" fill="none" xmlns="http://www.w3.org/2000/svg">
<path d="M8.57209 3.21743C8.74019 3.0168 8.82293 2.75825 8.80254 2.4973C8.78215 2.23635 8.66026 1.9938 8.46304 1.82171C8.26582 1.64962 8.00899 1.56172 7.74769 1.57687C7.48638 1.59203 7.24143 1.70903 7.06542 1.90276L5.34276 3.87609C4.36593 4.99552 3.81374 6.42272 3.78276 7.90809L3.70676 11.5334C3.70128 11.7986 3.80138 12.0552 3.98504 12.2466C4.1687 12.438 4.42087 12.5486 4.68609 12.5541C4.95131 12.5596 5.20784 12.4595 5.39925 12.2758C5.59066 12.0922 5.70128 11.84 5.70676 11.5748L5.78142 7.95076C5.80281 6.9344 6.18086 5.95791 6.84942 5.19209L8.57209 3.21743Z" fill="#113870"/>
<path fill-rule="evenodd" clip-rule="evenodd" d="M8.3161 10.2667C8.40564 8.84026 9.03545 7.50152 10.0773 6.52306C11.1192 5.54461 12.4948 4.99999 13.9241 5.00008H14.6668V4.00008C14.6668 3.64646 14.8072 3.30732 15.0573 3.05727C15.3073 2.80722 15.6465 2.66675 16.0001 2.66675C16.3537 2.66675 16.6929 2.80722 16.9429 3.05727C17.193 3.30732 17.3334 3.64646 17.3334 4.00008V5.00008H18.0761C19.5054 4.99999 20.881 5.54461 21.9229 6.52306C22.9647 7.50152 23.5946 8.84026 23.6841 10.2667L23.9788 14.9787C24.0911 16.7754 24.6943 18.5067 25.7228 19.9841C25.9353 20.2895 26.0651 20.6447 26.0996 21.0152C26.1342 21.3856 26.0723 21.7587 25.9199 22.0982C25.7676 22.4376 25.53 22.7319 25.2303 22.9523C24.9305 23.1727 24.5789 23.3118 24.2094 23.3561L19.6668 23.9001V25.3334C19.6668 26.3059 19.2805 27.2385 18.5928 27.9261C17.9052 28.6138 16.9726 29.0001 16.0001 29.0001C15.0276 29.0001 14.095 28.6138 13.4074 27.9261C12.7197 27.2385 12.3334 26.3059 12.3334 25.3334V23.9001L7.79076 23.3547C7.42156 23.3104 7.07011 23.1712 6.77056 22.9509C6.47101 22.7305 6.23354 22.4365 6.08123 22.0972C5.92892 21.758 5.86695 21.3851 5.90132 21.0148C5.9357 20.6446 6.06527 20.2895 6.27743 19.9841C7.30583 18.5067 7.90907 16.7753 8.02143 14.9787L8.3161 10.2667ZM14.3334 25.3334C14.3334 25.7754 14.509 26.1994 14.8216 26.5119C15.1341 26.8245 15.5581 27.0001 16.0001 27.0001C16.4421 27.0001 16.866 26.8245 17.1786 26.5119C17.4912 26.1994 17.6668 25.7754 17.6668 25.3334V24.3334H14.3334V25.3334Z" fill="#113870"/>
<path d="M23.524 1.80669C23.3243 1.98105 23.202 2.22761 23.184 2.49214C23.1659 2.75668 23.2537 3.01754 23.428 3.21735L25.1507 5.19069C25.8191 5.95704 26.1967 6.93403 26.2174 7.95069L26.2934 11.5734C26.2961 11.7047 26.3246 11.8342 26.3774 11.9545C26.4302 12.0748 26.5061 12.1835 26.6009 12.2744C26.6956 12.3653 26.8074 12.4367 26.9298 12.4845C27.0521 12.5322 27.1827 12.5554 27.314 12.5527C27.4453 12.55 27.5748 12.5214 27.6951 12.4687C27.8154 12.4159 27.9241 12.34 28.0151 12.2452C28.106 12.1504 28.1774 12.0386 28.2251 11.9163C28.2729 11.7939 28.2961 11.6633 28.2934 11.532L28.2174 7.90802C28.1864 6.42265 27.6342 4.99544 26.6574 3.87602L24.9347 1.90269C24.7603 1.70294 24.5138 1.58061 24.2492 1.56261C23.9847 1.54461 23.7238 1.6324 23.524 1.80669Z" fill="#113870"/>
</svg>
