<svg width="32" height="32" viewBox="0 0 32 32" fill="none" xmlns="http://www.w3.org/2000/svg">
<path d="M16.0002 22.6666C16.7074 22.6666 17.3857 22.3856 17.8858 21.8855C18.3859 21.3854 18.6668 20.7072 18.6668 19.9999C18.6668 19.2927 18.3859 18.6144 17.8858 18.1143C17.3857 17.6142 16.7074 17.3333 16.0002 17.3333C15.2929 17.3333 14.6146 17.6142 14.1145 18.1143C13.6144 18.6144 13.3335 19.2927 13.3335 19.9999C13.3335 20.7072 13.6144 21.3854 14.1145 21.8855C14.6146 22.3856 15.2929 22.6666 16.0002 22.6666ZM24.0002 10.6666C24.7074 10.6666 25.3857 10.9475 25.8858 11.4476C26.3859 11.9477 26.6668 12.626 26.6668 13.3333V26.6666C26.6668 27.3738 26.3859 28.0521 25.8858 28.5522C25.3857 29.0523 24.7074 29.3333 24.0002 29.3333H8.00016C7.29292 29.3333 6.61464 29.0523 6.11454 28.5522C5.61445 28.0521 5.3335 27.3738 5.3335 26.6666V13.3333C5.3335 12.626 5.61445 11.9477 6.11454 11.4476C6.61464 10.9475 7.29292 10.6666 8.00016 10.6666H9.3335V7.99992C9.3335 6.23181 10.0359 4.53612 11.2861 3.28587C12.5364 2.03563 14.2321 1.33325 16.0002 1.33325C16.8756 1.33325 17.7425 1.50569 18.5514 1.84072C19.3602 2.17575 20.0952 2.66682 20.7142 3.28587C21.3333 3.90493 21.8243 4.63986 22.1594 5.4487C22.4944 6.25753 22.6668 7.12444 22.6668 7.99992V10.6666H24.0002ZM16.0002 3.99992C14.9393 3.99992 13.9219 4.42135 13.1717 5.17149C12.4216 5.92164 12.0002 6.93905 12.0002 7.99992V10.6666H20.0002V7.99992C20.0002 6.93905 19.5787 5.92164 18.8286 5.17149C18.0784 4.42135 17.061 3.99992 16.0002 3.99992Z" fill="#113870"/>
</svg>
