<svg width="62" height="62" viewBox="0 0 62 62" fill="none" xmlns="http://www.w3.org/2000/svg">
<path d="M41.3332 25.8333C41.3332 28.5739 40.2445 31.2022 38.3066 33.1401C36.3687 35.078 33.7404 36.1667 30.9998 36.1667C28.2593 36.1667 25.6309 35.078 23.6931 33.1401C21.7552 31.2022 20.6665 28.5739 20.6665 25.8333C20.6665 23.0928 21.7552 20.4644 23.6931 18.5266C25.6309 16.5887 28.2593 15.5 30.9998 15.5C33.7404 15.5 36.3687 16.5887 38.3066 18.5266C40.2445 20.4644 41.3332 23.0928 41.3332 25.8333Z" fill="#113870"/>
<path fill-rule="evenodd" clip-rule="evenodd" d="M29.9458 56.8128C16.1676 56.2599 5.1665 44.9139 5.1665 31.0001C5.1665 16.7323 16.7321 5.16675 30.9998 5.16675C45.2676 5.16675 56.8332 16.7323 56.8332 31.0001C56.8332 45.2678 45.2676 56.8334 30.9998 56.8334C30.8819 56.8342 30.7639 56.8342 30.6459 56.8334C30.4121 56.8334 30.1783 56.8257 29.9458 56.8128ZM14.4226 47.3009C14.2294 46.7462 14.1637 46.1552 14.2302 45.5716C14.2968 44.988 14.4939 44.427 14.807 43.93C15.12 43.4331 15.541 43.013 16.0386 42.701C16.5362 42.389 17.0978 42.1931 17.6815 42.1278C27.7513 41.0131 34.3104 41.1138 44.3311 42.151C44.9156 42.2119 45.4785 42.4054 45.9769 42.7166C46.4754 43.0279 46.8962 43.4489 47.2073 43.9474C47.5185 44.4459 47.7118 45.0088 47.7725 45.5933C47.8332 46.1778 47.7598 46.7685 47.5577 47.3203C51.8524 42.975 54.2575 37.1096 54.2498 31.0001C54.2498 18.1596 43.8403 7.75008 30.9998 7.75008C18.1594 7.75008 7.74984 18.1596 7.74984 31.0001C7.74984 37.3499 10.2957 43.1056 14.4226 47.3009Z" fill="#113870"/>
</svg>
