<svg width="48" height="48" viewBox="0 0 48 48" fill="none" xmlns="http://www.w3.org/2000/svg">
<circle cx="24" cy="24" r="24" fill="#113870"/>
<path d="M24.0009 15.9996C23.7651 15.9996 23.539 16.0933 23.3723 16.26C23.2056 16.4267 23.112 16.6528 23.112 16.8885C23.112 17.1243 23.2056 17.3504 23.3723 17.5171C23.539 17.6838 23.7651 17.7774 24.0009 17.7774H25.7786C26.0144 17.7774 26.2405 17.6838 26.4072 17.5171C26.5739 17.3504 26.6675 17.1243 26.6675 16.8885C26.6675 16.6528 26.5739 16.4267 26.4072 16.26C26.2405 16.0933 26.0144 15.9996 25.7786 15.9996H24.0009ZM19.3786 12.4441C18.7016 12.4441 18.0312 12.5774 17.4057 12.8365C16.7802 13.0956 16.2119 13.4754 15.7331 13.9541C14.7663 14.921 14.2231 16.2323 14.2231 17.5996V21.333H13.3342C13.0985 21.333 12.8724 21.4266 12.7057 21.5933C12.539 21.76 12.4453 21.9861 12.4453 22.2219C12.4453 22.4576 12.539 22.6837 12.7057 22.8504C12.8724 23.0171 13.0985 23.1108 13.3342 23.1108H14.2231V35.0219C14.2231 35.6348 14.4666 36.2227 14.9 36.6561C15.3334 37.0895 15.9213 37.333 16.5342 37.333H19.0231C19.3266 37.333 19.6271 37.2732 19.9075 37.1571C20.1879 37.0409 20.4427 36.8707 20.6573 36.6561C20.8719 36.4415 21.0421 36.1867 21.1583 35.9063C21.2744 35.6259 21.3342 35.3254 21.3342 35.0219V33.7774H28.4453V35.0219C28.4453 35.6348 28.6888 36.2227 29.1222 36.6561C29.5556 37.0895 30.1435 37.333 30.7564 37.333H33.2453C33.8583 37.333 34.4461 37.0895 34.8795 36.6561C35.3129 36.2227 35.5564 35.6348 35.5564 35.0219V23.1108H36.4453C36.6811 23.1108 36.9072 23.0171 37.0739 22.8504C37.2406 22.6837 37.3342 22.4576 37.3342 22.2219C37.3342 21.9861 37.2406 21.76 37.0739 21.5933C36.9072 21.4266 36.6811 21.333 36.4453 21.333H35.5564V17.5996C35.5564 16.2323 35.0133 14.921 34.0464 13.9541C33.0795 12.9873 31.7682 12.4441 30.4009 12.4441H19.3786ZM33.7786 17.5996V24.8885H16.0009V17.5996C16.0009 15.733 17.512 14.2219 19.3786 14.2219H30.4009C32.2675 14.2219 33.7786 15.733 33.7786 17.5996ZM33.7786 33.7774V35.0219C33.7786 35.0919 33.7649 35.1613 33.738 35.226C33.7112 35.2907 33.672 35.3495 33.6224 35.399C33.5729 35.4485 33.5141 35.4878 33.4494 35.5146C33.3847 35.5414 33.3154 35.5552 33.2453 35.5552H30.7564C30.6864 35.5552 30.617 35.5414 30.5523 35.5146C30.4876 35.4878 30.4288 35.4485 30.3793 35.399C30.3298 35.3495 30.2905 35.2907 30.2637 35.226C30.2369 35.1613 30.2231 35.0919 30.2231 35.0219V33.7774H33.7786ZM19.5564 33.7774V35.0219C19.5564 35.0919 19.5426 35.1613 19.5158 35.226C19.489 35.2907 19.4497 35.3495 19.4002 35.399C19.3507 35.4485 19.2919 35.4878 19.2272 35.5146C19.1625 35.5414 19.0931 35.5552 19.0231 35.5552H16.5342C16.4642 35.5552 16.3948 35.5414 16.3301 35.5146C16.2654 35.4878 16.2066 35.4485 16.1571 35.399C16.1076 35.3495 16.0683 35.2907 16.0415 35.226C16.0147 35.1613 16.0009 35.0919 16.0009 35.0219V33.7774H19.5564ZM22.2231 28.8885C22.2231 29.0636 22.1886 29.237 22.1216 29.3988C22.0546 29.5605 21.9564 29.7075 21.8326 29.8313C21.7088 29.9552 21.5618 30.0534 21.4 30.1204C21.2382 30.1874 21.0649 30.2219 20.8898 30.2219C20.7147 30.2219 20.5413 30.1874 20.3795 30.1204C20.2177 30.0534 20.0708 29.9552 19.9469 29.8313C19.8231 29.7075 19.7249 29.5605 19.6579 29.3988C19.5909 29.237 19.5564 29.0636 19.5564 28.8885C19.5564 28.5349 19.6969 28.1958 19.9469 27.9457C20.197 27.6957 20.5361 27.5552 20.8898 27.5552C21.2434 27.5552 21.5825 27.6957 21.8326 27.9457C22.0826 28.1958 22.2231 28.5349 22.2231 28.8885ZM28.8898 30.2219C28.5361 30.2219 28.197 30.0814 27.9469 29.8313C27.6969 29.5813 27.5564 29.2422 27.5564 28.8885C27.5564 28.5349 27.6969 28.1958 27.9469 27.9457C28.197 27.6957 28.5361 27.5552 28.8898 27.5552C29.2434 27.5552 29.5825 27.6957 29.8326 27.9457C30.0826 28.1958 30.2231 28.5349 30.2231 28.8885C30.2231 29.2422 30.0826 29.5813 29.8326 29.8313C29.5825 30.0814 29.2434 30.2219 28.8898 30.2219Z" fill="white"/>
</svg>
