<svg width="45" height="45" viewBox="0 0 45 45" fill="none" xmlns="http://www.w3.org/2000/svg">
<path fill-rule="evenodd" clip-rule="evenodd" d="M13.1251 8.3125C13.1251 7.93012 17.0766 5.25 21.0001 5.25C24.9236 5.25 28.8751 7.93012 28.8751 8.3125C28.8751 9.6775 28.7298 10.486 28.6073 10.9261C28.526 11.2149 28.2556 11.375 27.9555 11.375H14.0447C13.7446 11.375 13.4742 11.2149 13.3928 10.9261C13.2703 10.486 13.1251 9.6775 13.1251 8.3125ZM19.6876 7.875C19.4555 7.875 19.233 7.96719 19.0689 8.13128C18.9048 8.29538 18.8126 8.51794 18.8126 8.75C18.8126 8.98206 18.9048 9.20462 19.0689 9.36872C19.233 9.53281 19.4555 9.625 19.6876 9.625H22.3126C22.5447 9.625 22.7672 9.53281 22.9313 9.36872C23.0954 9.20462 23.1876 8.98206 23.1876 8.75C23.1876 8.51794 23.0954 8.29538 22.9313 8.13128C22.7672 7.96719 22.5447 7.875 22.3126 7.875H19.6876ZM14.0333 16.8158C11.1196 15.9145 11.8546 14.3045 12.9658 13.125H29.2776C30.1666 14.2607 30.6435 15.7929 27.9563 16.7099C28.0662 17.6846 27.9699 18.6716 27.6738 19.6068C27.3777 20.542 26.8883 21.4045 26.2374 22.1383C25.5865 22.8722 24.7887 23.4611 23.8956 23.8668C23.0025 24.2726 22.0341 24.486 21.0531 24.4934C20.0722 24.5008 19.1007 24.302 18.2016 23.9098C17.3025 23.5176 16.4958 22.9408 15.834 22.2168C15.1721 21.4928 14.6698 20.6378 14.3596 19.7072C14.0494 18.7766 13.9382 17.7912 14.0333 16.8149M20.7621 17.4991C23.0738 17.4991 24.8658 17.3766 26.2396 17.1631C26.2848 17.8765 26.1837 18.5916 25.9428 19.2646C25.7018 19.9376 25.3259 20.5543 24.8382 21.0769C24.3505 21.5995 23.7611 22.017 23.1064 22.3037C22.4516 22.5905 21.7451 22.7406 21.0303 22.7447C20.3155 22.7488 19.6074 22.6069 18.9493 22.3277C18.2913 22.0485 17.6972 21.6378 17.2035 21.1209C16.7098 20.6039 16.3268 19.9916 16.0781 19.3214C15.8294 18.6513 15.7202 17.9374 15.7571 17.2235C17.0372 17.4003 18.6778 17.4991 20.7621 17.4991ZM28.365 30.275C27.5735 29.0402 26.4841 28.0243 25.1971 27.321C23.9101 26.6176 22.4668 26.2493 21.0001 26.25C19.5328 26.2491 18.0889 26.6174 16.8013 27.3211C15.5138 28.0248 14.4241 29.0413 13.6326 30.2768C13.3388 29.8243 12.8877 29.497 12.3665 29.358L10.676 28.9056C10.1157 28.7554 9.51861 28.8339 9.01616 29.1239C8.51372 29.4138 8.14702 29.8915 7.99672 30.4517L7.31772 32.9875C7.24335 33.265 7.22438 33.5544 7.26188 33.8393C7.29938 34.1241 7.39262 34.3988 7.53628 34.6475C7.67993 34.8963 7.87119 35.1144 8.09912 35.2893C8.32706 35.4642 8.58721 35.5924 8.86472 35.6668L10.5543 36.12C10.8385 36.1966 11.1353 36.2148 11.4267 36.1736C11.7182 36.1324 11.9983 36.0326 12.2501 35.8803C12.2508 36.1123 12.3436 36.3346 12.5082 36.4982C12.6728 36.6618 12.8957 36.7533 13.1277 36.7526C13.3598 36.7519 13.5821 36.6591 13.7457 36.4945C13.9093 36.3299 14.0008 36.1071 14.0001 35.875V35C14.0001 34.6666 14.0237 34.3385 14.0683 34.0174L18.6218 35.238C18.8332 35.6904 19.1692 36.0732 19.5905 36.3413C20.0117 36.6095 20.5007 36.7519 21.0001 36.7519C21.4994 36.7519 21.9884 36.6095 22.4097 36.3413C22.8309 36.0732 23.167 35.6904 23.3783 35.238L27.9318 34.0174C27.9765 34.3385 28.0001 34.6666 28.0001 35V35.875C27.9989 36.1071 28.09 36.3301 28.2533 36.495C28.4166 36.6599 28.6387 36.7532 28.8707 36.7544C29.1028 36.7555 29.3258 36.6645 29.4907 36.5012C29.6556 36.3379 29.7489 36.1158 29.7501 35.8837C30.2401 36.1777 30.8456 36.2801 31.4415 36.12L33.132 35.6676C33.4095 35.5933 33.6696 35.465 33.8976 35.2902C34.1255 35.1153 34.3168 34.8972 34.4604 34.6484C34.6041 34.3996 34.6973 34.125 34.7348 33.8401C34.7723 33.5553 34.7533 33.2659 34.679 32.9884L33.9991 30.4526C33.8488 29.8923 33.4821 29.4147 32.9796 29.1247C32.4772 28.8348 31.8802 28.7563 31.3198 28.9065L29.6293 29.3589C29.1093 29.4973 28.6589 29.8242 28.365 30.275ZM14.5277 32.3277C15.0005 31.1848 15.7674 30.1873 16.7505 29.4367C17.7337 28.6861 18.8979 28.2092 20.1251 28.0543V31.6496C19.733 31.7887 19.3794 32.0188 19.0934 32.3211C18.8075 32.6233 18.5973 32.989 18.4801 33.3883L14.5277 32.3277ZM27.4725 32.3277C26.9996 31.1848 26.2327 30.1874 25.2496 29.4368C24.2665 28.6863 23.1022 28.2092 21.8751 28.0543V31.6496C22.6661 31.9296 23.2838 32.5771 23.5201 33.3883L27.4725 32.3277ZM21.0001 35C21.2322 35 21.4547 34.9078 21.6188 34.7437C21.7829 34.5796 21.8751 34.3571 21.8751 34.125C21.8751 33.8929 21.7829 33.6704 21.6188 33.5063C21.4547 33.3422 21.2322 33.25 21.0001 33.25C20.768 33.25 20.5455 33.3422 20.3814 33.5063C20.2173 33.6704 20.1251 33.8929 20.1251 34.125C20.1251 34.3571 20.2173 34.5796 20.3814 34.7437C20.5455 34.9078 20.768 35 21.0001 35Z" fill="#113870"/>
<circle cx="35.625" cy="35.625" r="8.5" fill="#29A7E4"/>
<path d="M38.8422 39.2679C37.9989 39.2679 37.1658 39.0841 36.3428 38.7166C35.5197 38.3491 34.7709 37.8279 34.0963 37.153C33.4217 36.4781 32.9007 35.7293 32.5331 34.9066C32.1656 34.0838 31.9817 33.2507 31.9814 32.4072C31.9814 32.2857 32.0219 32.1846 32.1029 32.1036C32.1838 32.0227 32.285 31.9822 32.4064 31.9822H34.0457C34.1402 31.9822 34.2245 32.0143 34.2987 32.0785C34.3729 32.1427 34.4168 32.2186 34.4303 32.306L34.6934 33.7227C34.7068 33.8306 34.7035 33.9217 34.6832 33.9959C34.663 34.0701 34.6259 34.1342 34.5719 34.1881L33.5904 35.1798C33.7253 35.4294 33.8854 35.6705 34.0708 35.9031C34.2562 36.1357 34.4603 36.3601 34.6832 36.5762C34.8924 36.7854 35.1116 36.9794 35.341 37.1583C35.5703 37.3372 35.8132 37.5007 36.0695 37.6488L37.0207 36.6977C37.0814 36.6369 37.1608 36.5915 37.2587 36.5612C37.3567 36.531 37.4527 36.5225 37.5469 36.5357L38.9434 36.8191C39.0378 36.8461 39.1154 36.895 39.1761 36.966C39.2368 37.037 39.2672 37.1162 39.2672 37.2036V38.8429C39.2672 38.9643 39.2267 39.0655 39.1457 39.1465C39.0648 39.2274 38.9636 39.2679 38.8422 39.2679Z" fill="white"/>
</svg>
