<svg width="42" height="42" viewBox="0 0 42 42" fill="none" xmlns="http://www.w3.org/2000/svg">
<path fill-rule="evenodd" clip-rule="evenodd" d="M14 12.25C14 10.3935 14.7375 8.61301 16.0503 7.30025C17.363 5.9875 19.1435 5.25 21 5.25C22.8565 5.25 24.637 5.9875 25.9497 7.30025C27.2625 8.61301 28 10.3935 28 12.25C28 14.1065 27.2625 15.887 25.9497 17.1997C24.637 18.5125 22.8565 19.25 21 19.25C19.1435 19.25 17.363 18.5125 16.0503 17.1997C14.7375 15.887 14 14.1065 14 12.25ZM14 22.75C11.6794 22.75 9.45376 23.6719 7.81282 25.3128C6.17187 26.9538 5.25 29.1794 5.25 31.5C5.25 32.8924 5.80312 34.2277 6.78769 35.2123C7.77226 36.1969 9.10761 36.75 10.5 36.75H31.5C32.8924 36.75 34.2277 36.1969 35.2123 35.2123C36.1969 34.2277 36.75 32.8924 36.75 31.5C36.75 29.1794 35.8281 26.9538 34.1872 25.3128C32.5462 23.6719 30.3206 22.75 28 22.75H14Z" fill="#113870"/>
<circle cx="33.5" cy="33.5" r="8.5" fill="#29A7E4"/>
<path d="M36.7172 37.1429C35.8739 37.1429 35.0408 36.9591 34.2178 36.5916C33.3947 36.2241 32.6459 35.7029 31.9713 35.028C31.2967 34.3531 30.7757 33.6043 30.4081 32.7816C30.0406 31.9588 29.8567 31.1257 29.8564 30.2822C29.8564 30.1607 29.8969 30.0596 29.9779 29.9786C30.0588 29.8977 30.16 29.8572 30.2814 29.8572H31.9207C32.0152 29.8572 32.0995 29.8893 32.1737 29.9535C32.2479 30.0177 32.2918 30.0936 32.3053 30.181L32.5684 31.5977C32.5818 31.7056 32.5785 31.7967 32.5582 31.8709C32.538 31.9451 32.5009 32.0092 32.4469 32.0631L31.4654 33.0548C31.6003 33.3044 31.7604 33.5455 31.9458 33.7781C32.1312 34.0107 32.3353 34.2351 32.5582 34.4512C32.7674 34.6604 32.9866 34.8544 33.216 35.0333C33.4453 35.2122 33.6882 35.3757 33.9445 35.5238L34.8957 34.5727C34.9564 34.5119 35.0358 34.4665 35.1337 34.4362C35.2317 34.406 35.3277 34.3975 35.4219 34.4107L36.8184 34.6941C36.9128 34.7211 36.9904 34.77 37.0511 34.841C37.1118 34.912 37.1422 34.9912 37.1422 35.0786V36.7179C37.1422 36.8393 37.1017 36.9405 37.0207 37.0215C36.9398 37.1024 36.8386 37.1429 36.7172 37.1429Z" fill="white"/>
</svg>
