<svg width="48" height="48" viewBox="0 0 48 48" fill="none" xmlns="http://www.w3.org/2000/svg">
<circle cx="24" cy="24" r="24" fill="#113870"/>
<path d="M24.85 17.74H15.37C14.7414 17.74 14.1386 17.9897 13.6942 18.4342C13.2497 18.8786 13 19.4814 13 20.11V24.85C13 25.4786 13.2497 26.0814 13.6942 26.5258C14.1386 26.9703 14.7414 27.22 15.37 27.22H16.555V31.96C16.555 32.2743 16.6798 32.5757 16.9021 32.7979C17.1243 33.0202 17.4257 33.145 17.74 33.145H20.11C20.4243 33.145 20.7257 33.0202 20.9479 32.7979C21.1702 32.5757 21.295 32.2743 21.295 31.96V27.22H24.85L30.775 31.96V13L24.85 17.74ZM36.1075 22.48C36.1075 24.5064 34.9699 26.3431 33.145 27.22V17.74C34.9581 18.6288 36.1075 20.4655 36.1075 22.48Z" fill="white"/>
</svg>
