<svg width="42" height="42" viewBox="0 0 42 42" fill="none" xmlns="http://www.w3.org/2000/svg">
<g clip-path="url(#clip0_57_3888)">
<path fill-rule="evenodd" clip-rule="evenodd" d="M19.3602 4.32073C19.7908 3.97641 20.3189 3.77641 20.8695 3.74908C21.4202 3.72175 21.9654 3.86849 22.428 4.16848L22.6398 4.32073L30.1858 10.3582C30.5539 10.6525 30.8589 11.0181 31.0823 11.4331C31.3057 11.848 31.443 12.3039 31.486 12.7732L31.5 13.09V33.25H33.25V18.375C33.2499 18.1702 33.3217 17.9719 33.4528 17.8145C33.5839 17.6572 33.7661 17.5508 33.9675 17.514L34.125 17.5H35C35.883 17.4997 36.7335 17.8332 37.381 18.4336C38.0284 19.034 38.425 19.857 38.4913 20.7375L38.5 21V34.825C38.4998 35.299 38.3247 35.7563 38.0083 36.1093C37.6918 36.4622 37.2562 36.686 36.785 36.7377L36.575 36.75H5.425C4.95065 36.7502 4.49291 36.5753 4.13959 36.2588C3.78627 35.9423 3.56225 35.5065 3.5105 35.035L3.5 34.825V21C3.49972 20.117 3.83321 19.2665 4.43362 18.619C5.03403 17.9716 5.85698 17.575 6.7375 17.5087L7 17.5H7.875C8.07979 17.4999 8.27813 17.5717 8.43545 17.7028C8.59278 17.8339 8.69914 18.016 8.736 18.2175L8.75 18.375V33.25H10.5V13.09C10.5 12.6187 10.5951 12.1522 10.7798 11.7186C10.9644 11.285 11.2347 10.8931 11.5745 10.5665L11.8142 10.3565L19.3602 4.32073ZM21 15.7482C20.0717 15.7482 19.1815 16.117 18.5251 16.7734C17.8687 17.4297 17.5 18.32 17.5 19.2482C17.5 20.1765 17.8687 21.0667 18.5251 21.7231C19.1815 22.3795 20.0717 22.7482 21 22.7482C21.9283 22.7482 22.8185 22.3795 23.4749 21.7231C24.1313 21.0667 24.5 20.1765 24.5 19.2482C24.5 18.32 24.1313 17.4297 23.4749 16.7734C22.8185 16.117 21.9283 15.7482 21 15.7482Z" fill="#113870"/>
<circle cx="33.5" cy="33.5" r="8.5" fill="#29A7E4"/>
<path d="M36.7181 37.1429C35.8749 37.1429 35.0417 36.9591 34.2187 36.5916C33.3957 36.2241 32.6469 35.7029 31.9723 35.028C31.2977 34.3531 30.7766 33.6043 30.4091 32.7816C30.0416 31.9588 29.8577 31.1257 29.8574 30.2822C29.8574 30.1607 29.8979 30.0596 29.9789 29.9786C30.0598 29.8977 30.161 29.8572 30.2824 29.8572H31.9217C32.0162 29.8572 32.1005 29.8893 32.1747 29.9535C32.2489 30.0177 32.2927 30.0936 32.3062 30.181L32.5693 31.5977C32.5828 31.7056 32.5794 31.7967 32.5592 31.8709C32.539 31.9451 32.5019 32.0092 32.4479 32.0631L31.4664 33.0548C31.6013 33.3044 31.7614 33.5455 31.9468 33.7781C32.1322 34.0107 32.3363 34.2351 32.5592 34.4512C32.7683 34.6604 32.9876 34.8544 33.2169 35.0333C33.4463 35.2122 33.6892 35.3757 33.9455 35.5238L34.8967 34.5727C34.9574 34.5119 35.0368 34.4665 35.1347 34.4362C35.2327 34.406 35.3287 34.3975 35.4229 34.4107L36.8193 34.6941C36.9138 34.7211 36.9914 34.77 37.0521 34.841C37.1128 34.912 37.1431 34.9912 37.1431 35.0786V36.7179C37.1431 36.8393 37.1027 36.9405 37.0217 37.0215C36.9408 37.1024 36.8396 37.1429 36.7181 37.1429Z" fill="white"/>
</g>
<defs>
<clipPath id="clip0_57_3888">
<rect width="42" height="42" fill="white"/>
</clipPath>
</defs>
</svg>
