<svg width="48" height="48" viewBox="0 0 48 48" fill="none" xmlns="http://www.w3.org/2000/svg">
<circle cx="24" cy="24" r="24" fill="#113870"/>
<g clip-path="url(#clip0_57_3674)">
<path d="M20.148 23.4195H19.4606C18.5225 23.3856 17.5875 23.5449 16.7135 23.8874C15.8395 24.2299 15.0453 24.7484 14.3801 25.4106L14.1904 25.6319V32.1741H17.4141V28.4605L17.8487 27.9706L18.0462 27.7415C19.0749 26.6847 20.3556 25.907 21.7677 25.4817C21.0607 24.9438 20.5031 24.2338 20.148 23.4195Z" fill="white"/>
<path d="M35.4282 25.3869C34.763 24.7247 33.9687 24.2062 33.0948 23.8637C32.2208 23.5212 31.2858 23.3619 30.3477 23.3958C30.06 23.3966 29.7726 23.4125 29.4865 23.4432C29.1247 24.2072 28.5823 24.8716 27.9062 25.379C29.4138 25.7961 30.7794 26.6155 31.8569 27.7494L32.0544 27.9706L32.4811 28.4605V32.182H35.5942V25.6082L35.4282 25.3869Z" fill="white"/>
<path d="M19.4364 21.8789H19.6813C19.5675 20.9017 19.739 19.9124 20.175 19.0305C20.611 18.1487 21.293 17.4118 22.1386 16.909C21.8321 16.4407 21.4092 16.0601 20.9114 15.8044C20.4135 15.5486 19.8578 15.4266 19.2987 15.4501C18.7395 15.4737 18.196 15.6421 17.7215 15.9388C17.2469 16.2355 16.8576 16.6504 16.5916 17.1428C16.3255 17.6351 16.1919 18.1882 16.2039 18.7477C16.2158 19.3073 16.3728 19.8541 16.6596 20.3347C16.9464 20.8153 17.353 21.2132 17.8398 21.4895C18.3265 21.7657 18.8767 21.9108 19.4364 21.9105V21.8789Z" fill="white"/>
<path d="M29.9686 21.2863C29.9782 21.4679 29.9782 21.6499 29.9686 21.8315C30.1203 21.8555 30.2734 21.8687 30.4269 21.871H30.577C31.1343 21.8413 31.6743 21.6678 32.1445 21.3674C32.6148 21.0671 32.9993 20.65 33.2605 20.157C33.5218 19.6639 33.6509 19.1116 33.6353 18.5538C33.6198 17.996 33.46 17.4518 33.1717 16.9741C32.8834 16.4963 32.4762 16.1014 31.99 15.8277C31.5037 15.5541 30.9548 15.411 30.3968 15.4124C29.8388 15.4138 29.2907 15.5596 28.8058 15.8358C28.3209 16.1119 27.9158 16.5088 27.6299 16.988C28.345 17.4549 28.933 18.0921 29.3412 18.8423C29.7494 19.5924 29.965 20.4322 29.9686 21.2863Z" fill="white"/>
<path d="M24.7858 24.8259C26.7363 24.8259 28.3176 23.2446 28.3176 21.2941C28.3176 19.3435 26.7363 17.7622 24.7858 17.7622C22.8352 17.7622 21.2539 19.3435 21.2539 21.2941C21.2539 23.2446 22.8352 24.8259 24.7858 24.8259Z" fill="white"/>
<path d="M24.9755 26.7065C23.9436 26.6649 22.914 26.8324 21.9485 27.199C20.9831 27.5656 20.1018 28.1238 19.3577 28.8399L19.1602 29.0611V34.0626C19.1632 34.2255 19.1984 34.3862 19.2636 34.5355C19.3288 34.6849 19.4228 34.8199 19.5402 34.9329C19.6576 35.0459 19.7961 35.1346 19.9478 35.1941C20.0995 35.2535 20.2614 35.2825 20.4244 35.2794H29.5029C29.6658 35.2825 29.8277 35.2535 29.9794 35.1941C30.1311 35.1346 30.2696 35.0459 30.387 34.9329C30.5044 34.8199 30.5984 34.6849 30.6636 34.5355C30.7288 34.3862 30.764 34.2255 30.7671 34.0626V29.0769L30.5774 28.8399C29.8381 28.1216 28.9599 27.5619 27.9966 27.195C27.0333 26.8282 26.0053 26.662 24.9755 26.7065Z" fill="white"/>
</g>
<defs>
<clipPath id="clip0_57_3674">
<rect width="28.4444" height="28.4444" fill="white" transform="translate(10.666 10.667)"/>
</clipPath>
</defs>
</svg>
